<svg style="background:var(--anatomy-gray-400);padding:10px;box-sizing:border-box;max-height:153px" height="229" viewBox="0 0 480 229"><rect id="Placement_Area" width="480" height="229" fill="red" data-name="Placement Area" opacity="0"/><rect id="Background" width="480" height="229" fill="var(--anatomy-gray-100)" rx="4"/><text id="Header" fill="var(--anatomy-gray-900)" font-family="var(--anatomy-font)" font-size="18" font-weight="700" transform="translate(40 40)"><tspan x="0" y="18">Delete file</tspan></text><g id="Divider"><rect id="Placement_Area-2" width="400" height="2" fill="red" data-name="Placement Area" opacity="0" transform="translate(40 74)"/><rect id="Bar" width="400" height="2" fill="var(--anatomy-gray-300)" rx="1" transform="translate(40 74)"/></g><text id="Body" fill="var(--anatomy-gray-800)" font-family="var(--anatomy-font)" font-size="14" transform="translate(40 92)"><tspan x="0" y="14">Are you sure you want to delete &quot;budget.xls&quot;? It cannot be recovered.</tspan></text><g id="Button_Group" data-name="Button Group"><rect id="Placement_Area-3" width="160" height="32" fill="red" data-name="Placement Area" opacity="0" transform="translate(280 157)"/><g id="Button"><rect id="Placement_Area-4" width="72" height="32" fill="red" data-name="Placement Area" opacity="0" transform="translate(280 157)"/><g id="Background-2" fill="rgba(0,0,0,0)" stroke="var(--anatomy-gray-300)" stroke-width="2" data-name="Background" transform="translate(280 157)"><rect width="72" height="32" stroke="none" rx="16"/><rect width="70" height="30" x="1" y="1" fill="none" rx="15"/></g><text id="Text" fill="var(--anatomy-gray-800)" font-family="var(--anatomy-font)" font-size="14" font-weight="700" transform="translate(297 177)"><tspan x="0" y="0">Cancel</tspan></text></g><g id="Button-2" data-name="Button"><rect id="Placement_Area-5" width="72" height="32" fill="red" data-name="Placement Area" opacity="0" transform="translate(368 157)"/><g id="Background-3" fill="rgba(0,0,0,0)" stroke="var(--anatomy-gray-800)" stroke-width="2" data-name="Background" transform="translate(368 157)"><rect width="72" height="32" stroke="none" rx="16"/><rect width="70" height="30" x="1" y="1" fill="none" rx="15"/></g><text id="Text-2" fill="var(--anatomy-gray-800)" data-name="Text" font-family="var(--anatomy-font)" font-size="14" font-weight="700" transform="translate(385 177)"><tspan x="0" y="0">Delete</tspan></text></g></g><g id="Alert"><path id="Path_49" fill="var(--anatomy-gray-700)" d="M8.563,1.29.2,16.255A.5.5,0,0,0,.636,17H17.364a.5.5,0,0,0,.436-.744L9.436,1.29a.5.5,0,0,0-.872,0ZM10,14.75a.25.25,0,0,1-.25.25H8.25A.25.25,0,0,1,8,14.75v-1.5A.25.25,0,0,1,8.25,13h1.5a.25.25,0,0,1,.25.25Zm0-3a.25.25,0,0,1-.25.25H8.25A.25.25,0,0,1,8,11.75v-6a.25.25,0,0,1,.25-.25h1.5a.25.25,0,0,1,.25.25Z" data-name="Path 49" transform="translate(422 40)"/></g></svg>