<svg style="background:var(--anatomy-gray-100);width:calc(100% - 20px);padding:10px;max-height:205px" height="151" viewBox="0 0 156 151"><defs><filter id="Background" width="156" height="116" x="0" y="35" filterUnits="userSpaceOnUse"><feOffset dy="1" input="SourceAlpha"/><feGaussianBlur result="blur" stdDeviation="2"/><feFlood flood-opacity=".149"/><feComposite in2="blur" operator="in"/><feComposite in="SourceGraphic"/></filter></defs><g id="Menu" transform="translate(-1607 -420)"><g id="Action_button" data-name="Action button" transform="translate(1613 420)"><rect id="Placement_Area" width="32" height="32" fill="red" data-name="Placement Area" opacity="0"/><g id="Background-2" fill="var(--anatomy-gray-200)" stroke="var(--anatomy-gray-500)" stroke-width="1" data-name="Background"><rect width="32" height="32" stroke="none" rx="4"/><rect width="31" height="31" x=".5" y=".5" fill="none" rx="3.5"/></g><g id="Icon"><rect id="Canvas" width="18" height="18" fill="var(--anatomy-gray-900)" opacity="0" transform="translate(7 7)"/><circle id="Ellipse_12" cx="1.7" cy="1.7" r="1.7" fill="var(--anatomy-gray-900)" data-name="Ellipse 12" transform="translate(14.2 14.4)"/><circle id="Ellipse_13" cx="1.7" cy="1.7" r="1.7" fill="var(--anatomy-gray-900)" data-name="Ellipse 13" transform="translate(20.05 14.4)"/><circle id="Ellipse_14" cx="1.7" cy="1.7" r="1.7" fill="var(--anatomy-gray-900)" data-name="Ellipse 14" transform="translate(8.35 14.4)"/></g></g><g id="Picker_menu" data-name="Picker menu" transform="translate(1613 460)"><rect id="Placement_Area-2" width="144" height="100" fill="red" data-name="Placement Area" opacity="0"/><g filter="url(#Background)" transform="matrix(1, 0, 0, 1, -6, -40)"><g id="Background-3" fill="var(--anatomy-gray-50)" stroke="var(--anatomy-gray-400)" stroke-width="1" data-name="Background" transform="translate(6 40)"><rect width="144" height="104" stroke="none" rx="4"/><rect width="143" height="103" x=".5" y=".5" fill="none" rx="3.5"/></g></g><rect id="Hover" width="142" height="32" fill="var(--anatomy-gray-900)" fill-opacity=".04" transform="translate(1 4)"/><rect id="Menu_Item" width="57" height="32" fill="var(--anatomy-gray-800)" fill-opacity="0" data-name="Menu Item" transform="translate(12 4)"/><text id="Edit_" fill="var(--anatomy-gray-800)" data-name="Edit…" font-family="var(--anatomy-font)" font-size="14" transform="translate(12 24)"><tspan x="0" y="0">Edit…</tspan></text><rect id="Menu_Item-2" width="82" height="32" fill="var(--anatomy-gray-800)" fill-opacity="0" data-name="Menu Item" transform="translate(12 36)"/><text id="Rename_" fill="var(--anatomy-gray-800)" data-name="Rename…" font-family="var(--anatomy-font)" font-size="14" transform="translate(12 56)"><tspan x="0" y="0">Rename…</tspan></text><rect id="Menu_Item-3" width="72" height="32" fill="var(--anatomy-gray-800)" fill-opacity="0" data-name="Menu Item" transform="translate(12 68)"/><text id="Delete_" fill="var(--anatomy-gray-800)" data-name="Delete…" font-family="var(--anatomy-font)" font-size="14" transform="translate(12 88)"><tspan x="0" y="0">Delete…</tspan></text></g></g></svg>